<svg height="232.82823" width="709.46179" xmlns="http://www.w3.org/2000/svg"><g transform="translate(227.35167 15.777261)"><g fill="#808285"><path d="m16.81014 165.9a5.71 5.71 0 0 0 -1.64-1.38 6.79 6.79 0 0 0 -3.49-1 6.57 6.57 0 0 0 -4.8 2 6.68 6.68 0 0 0 0 9.53 6.61 6.61 0 0 0 4.8 2 6.76 6.76 0 0 0 3.43-.94 6.21 6.21 0 0 0 1.7-1.47v2.11h1.61v-12.9h-1.61zm-1.46 8.09a4.86 4.86 0 0 1 -3.63 1.55 5.31 5.31 0 0 1 -5.23-5.22 5.07 5.07 0 0 1 1.55-3.69 4.94 4.94 0 0 1 3.66-1.58 4.88 4.88 0 0 1 3.64 1.56 5.12 5.12 0 0 1 1.52 3.7 5.05 5.05 0 0 1 -1.51 3.68z"/><path d="m26.11014 169.22c-.58-.36-1.16-.7-1.73-1a6.79 6.79 0 0 1 -1.38-1 1.3 1.3 0 0 1 -.49-1 1.06 1.06 0 0 1 .4-.84 1.49 1.49 0 0 1 1-.37 2.2 2.2 0 0 1 1.88 1.13l.69 1v-2.5l-.1-.1a3.09 3.09 0 0 0 -2.36-1.07 3.31 3.31 0 0 0 -2.23.75 2.47 2.47 0 0 0 -.9 1.91 2.87 2.87 0 0 0 .7 1.91 5.93 5.93 0 0 0 1.55 1.3l1.72 1a5.34 5.34 0 0 1 1.37 1.16 2.33 2.33 0 0 1 .52 1.56 2.2 2.2 0 0 1 -.83 1.65 3.2 3.2 0 0 1 -5.07-1.28l-.71-1.59v3 .18a3.51 3.51 0 0 0 1.53 1.41 4.76 4.76 0 0 0 2.18.51 4.5 4.5 0 0 0 3.16-1.22 4 4 0 0 0 1.32-3 3.61 3.61 0 0 0 -.68-2.14 5.54 5.54 0 0 0 -1.54-1.36z"/><path d="m35.42014 169.22c-.58-.36-1.16-.7-1.73-1a6.87 6.87 0 0 1 -1.39-1 1.3 1.3 0 0 1 -.49-1 1.07 1.07 0 0 1 .41-.84 1.49 1.49 0 0 1 1-.37 2.2 2.2 0 0 1 1.88 1.13l.68 1v-2.5l-.09-.1a3.09 3.09 0 0 0 -2.36-1.07 3.31 3.31 0 0 0 -2.23.75 2.44 2.44 0 0 0 -.9 1.91 2.87 2.87 0 0 0 .7 1.91 5.93 5.93 0 0 0 1.55 1.3l1.71 1a5.39 5.39 0 0 1 1.38 1.16 2.33 2.33 0 0 1 .52 1.56 2.2 2.2 0 0 1 -.83 1.65 3.2 3.2 0 0 1 -5.07-1.28l-.72-1.59v3 .18a3.53 3.53 0 0 0 1.52 1.41 4.79 4.79 0 0 0 2.18.51 4.49 4.49 0 0 0 3.16-1.22 3.94 3.94 0 0 0 1.32-3 3.61 3.61 0 0 0 -.68-2.14 5.63 5.63 0 0 0 -1.52-1.36z"/><path d="m52.42014 170.25a6.48 6.48 0 0 0 -2-4.72 6.83 6.83 0 0 0 -9.62 0 6.47 6.47 0 0 0 -2 4.71 6.72 6.72 0 0 0 2 4.76 6.39 6.39 0 0 0 4.73 2h.24a6.35 6.35 0 0 0 4.73-2 6.7 6.7 0 0 0 1.92-4.75zm-1.62.06a5.05 5.05 0 0 1 -1.51 3.68 4.87 4.87 0 0 1 -3.63 1.55 5.31 5.31 0 0 1 -5.23-5.22 5.07 5.07 0 0 1 1.55-3.69 4.94 4.94 0 0 1 3.66-1.58 4.85 4.85 0 0 1 3.63 1.56 5.09 5.09 0 0 1 1.53 3.7z"/><path d="m60.46014 163.6a6.69 6.69 0 0 0 -4.9 2 6.42 6.42 0 0 0 -2 4.72 6.63 6.63 0 0 0 2 4.75 6.38 6.38 0 0 0 4.73 2h.24a6.45 6.45 0 0 0 5-2.2l.1-.1v-2.8l-.69 1a5.77 5.77 0 0 1 -2 1.88 5.06 5.06 0 0 1 -2.5.68 4.94 4.94 0 0 1 -3.64-1.55 5.17 5.17 0 0 1 0-7.38 4.9 4.9 0 0 1 3.64-1.55 5.06 5.06 0 0 1 2.5.68 5.87 5.87 0 0 1 2 1.85l.69 1v-2.67l-.1-.11a6.6 6.6 0 0 0 -5.07-2.2z"/><path d="m67.430138 163.87h1.61v12.87h-1.61z"/><path d="m68.24014 159.41a1.11 1.11 0 1 0 0 2.21 1.11 1.11 0 1 0 0-2.21z"/><path d="m78.01014 177.04a6.71 6.71 0 0 0 3.43-.94 6.4 6.4 0 0 0 1.71-1.47v2.11h1.61v-12.9h-1.65v2.06a5.71 5.71 0 0 0 -1.64-1.38 6.83 6.83 0 0 0 -3.5-1 6.6 6.6 0 0 0 -4.8 2 6.68 6.68 0 0 0 0 9.53 6.64 6.64 0 0 0 4.84 1.99zm3.68-3.05a4.88 4.88 0 0 1 -3.64 1.55 5.31 5.31 0 0 1 -5.22-5.22 5.07 5.07 0 0 1 1.55-3.69 4.92 4.92 0 0 1 3.66-1.58 4.85 4.85 0 0 1 3.63 1.56 5.24 5.24 0 0 1 0 7.38z"/><path d="m95.86014 179.69a2.26 2.26 0 0 0 -.72-1.67 2.38 2.38 0 0 0 -1.63-.7v-.23h.27a6.45 6.45 0 0 0 4.95-2.2l.1-.1v-2.8l-.69 1a5.77 5.77 0 0 1 -2 1.88 5.06 5.06 0 0 1 -2.5.68 4.94 4.94 0 0 1 -3.64-1.55 5.17 5.17 0 0 1 0-7.38 4.9 4.9 0 0 1 3.64-1.55 5.06 5.06 0 0 1 2.5.68 5.87 5.87 0 0 1 2 1.85l.69 1v-2.69l-.1-.11a6.6 6.6 0 0 0 -5-2.2 6.7 6.7 0 0 0 -4.91 2 6.25 6.25 0 0 0 -2 4.56 6.93 6.93 0 0 0 1.58 4.49 6.37 6.37 0 0 0 3.65 2.28v1.85h1.32a1.06 1.06 0 0 1 .77.28.94.94 0 0 1 .29.69.89.89 0 0 1 -.29.69 1 1 0 0 1 -.77.29h-1.26v1.42h1.32a2.43 2.43 0 0 0 1.75-.68 2.25 2.25 0 0 0 .71-1.66z"/><path d="m112.17014 165.9a5.58 5.58 0 0 0 -1.64-1.38 6.79 6.79 0 0 0 -3.49-1 6.58 6.58 0 0 0 -4.8 2 6.68 6.68 0 0 0 0 9.53 6.61 6.61 0 0 0 4.8 2 6.73 6.73 0 0 0 3.43-.94 6.21 6.21 0 0 0 1.7-1.47v2.11h1.62v-12.9h-1.62zm-1.46 8.09a4.84 4.84 0 0 1 -3.63 1.55 5.29 5.29 0 0 1 -5.23-5.22 5.07 5.07 0 0 1 1.55-3.69 5 5 0 0 1 3.67-1.58 4.88 4.88 0 0 1 3.63 1.56 5.23 5.23 0 0 1 0 7.38z"/><path d="m103.90014 161.77c.5-.82 1-1.26 1.36-1.27a4.64 4.64 0 0 1 2 .69 5.11 5.11 0 0 0 2.3.79c.92 0 1.82-.74 2.75-2.26l.35-.57h-1.75l-.11.17c-.47.74-.92 1.15-1.26 1.15a3.89 3.89 0 0 1 -1.77-.66 4.53 4.53 0 0 0 -2.22-.77h-.24c-1.16 0-2.14.8-2.9 2.37l-.26.54h1.64z"/><path d="m122.68014 163.55a6.61 6.61 0 0 0 -4.81 2 6.43 6.43 0 0 0 -2 4.71 6.67 6.67 0 0 0 2 4.76 6.38 6.38 0 0 0 4.72 2h.25a6.31 6.31 0 0 0 4.72-2 6.66 6.66 0 0 0 1.94-4.76 6.76 6.76 0 0 0 -6.79-6.7zm5.18 6.76a5.06 5.06 0 0 1 -1.52 3.68 4.84 4.84 0 0 1 -3.63 1.55 5.33 5.33 0 0 1 -5.23-5.22 5 5 0 0 1 1.56-3.69 4.92 4.92 0 0 1 3.66-1.58 4.85 4.85 0 0 1 3.63 1.56 5.09 5.09 0 0 1 1.53 3.7z"/><path d="m152.00014 174.64v2.1h1.61v-21h-1.61v10.18a6.34 6.34 0 0 0 -1.72-1.43 6.76 6.76 0 0 0 -3.42-.94 6.75 6.75 0 1 0 0 13.49 6.77 6.77 0 0 0 3.35-.92 6.65 6.65 0 0 0 1.79-1.48zm-10.32-4.33a5.12 5.12 0 0 1 1.52-3.7 4.88 4.88 0 0 1 3.64-1.56 4.94 4.94 0 0 1 3.66 1.58 5.07 5.07 0 0 1 1.55 3.69 5.31 5.31 0 0 1 -5.23 5.22 4.86 4.86 0 0 1 -3.63-1.55 5.05 5.05 0 0 1 -1.51-3.68z"/><path d="m167.47014 174.84.1-.11v-2.75l-.69 1a5.93 5.93 0 0 1 -2 1.87 5.37 5.37 0 0 1 -2.72.69 4.86 4.86 0 0 1 -2.8-1.06l8.42-8.32-.24-.27a6.61 6.61 0 0 0 -5.05-2.34 6.77 6.77 0 0 0 -4.94 2 6.43 6.43 0 0 0 -2 4.71 6.63 6.63 0 0 0 2 4.76 6.49 6.49 0 0 0 4.74 2h.24a6.44 6.44 0 0 0 4.94-2.18zm-9.21-1.43a5.08 5.08 0 0 1 -1.09-3.22 5.3 5.3 0 0 1 5.1-5.11 5.25 5.25 0 0 1 3.26 1.11z"/><path d="m179.27014 163.87h1.61v12.87h-1.61z"/><path d="m181.23014 160.55a1.16 1.16 0 1 0 -1.16 1.1 1 1 0 0 0 1.16-1.1z"/><path d="m189.66014 163.55a5.3 5.3 0 0 0 -4.33 1.85v-1.56h-1.61v12.9h1.61v-7.45a4 4 0 0 1 1.31-3 4.19 4.19 0 0 1 3-1.27 3.83 3.83 0 0 1 2.9 1.26 4.16 4.16 0 0 1 1.2 3v7.45h1.62v-7.45a5.62 5.62 0 0 0 -1.65-4.06 5.47 5.47 0 0 0 -4.05-1.67z"/><path d="m200.19014 174.41a3.28 3.28 0 0 1 -1-2.46v-6.54h3.73v-1.51h-3.71v-4.91h-1.61v13a4.7 4.7 0 0 0 1.46 3.55 5 5 0 0 0 3.53 1.39h.37v-1.52h-.37a3.29 3.29 0 0 1 -2.4-1z"/><path d="m215.75014 174.84.09-.11v-2.75l-.68 1a6.05 6.05 0 0 1 -2 1.87 5.33 5.33 0 0 1 -2.71.69 4.91 4.91 0 0 1 -2.81-1.06l8.43-8.32-.24-.27a6.62 6.62 0 0 0 -5.06-2.34 6.73 6.73 0 0 0 -4.93 2 6.44 6.44 0 0 0 -2 4.71 6.6 6.6 0 0 0 2 4.76 6.47 6.47 0 0 0 4.73 2h.24a6.46 6.46 0 0 0 4.94-2.18zm-9.22-1.43a5.07 5.07 0 0 1 -1.08-3.22 5.31 5.31 0 0 1 5.09-5.11 5.25 5.25 0 0 1 3.26 1.11z"/><path d="m225.59014 164.6-.15-.11a4.7 4.7 0 0 0 -6.09.42v-1.07h-1.61v12.9h1.61v-8.47a3 3 0 0 1 1-2.25 3.11 3.11 0 0 1 2.26-1 3.29 3.29 0 0 1 2.35 1.08l.64.64z"/><path d="m233.11014 163.55a5.29 5.29 0 0 0 -4.32 1.85v-1.56h-1.68v12.9h1.62v-7.45a4 4 0 0 1 1.3-3 4.19 4.19 0 0 1 3-1.27 3.8 3.8 0 0 1 2.9 1.26 4.17 4.17 0 0 1 1.21 3v7.45h1.61v-7.45a5.61 5.61 0 0 0 -1.64-4.06 5.51 5.51 0 0 0 -4-1.67z"/><path d="m247.42014 163.55a6.59 6.59 0 0 0 -4.81 2 6.43 6.43 0 0 0 -2 4.71 6.67 6.67 0 0 0 2 4.76 6.35 6.35 0 0 0 4.72 2h.24a6.32 6.32 0 0 0 4.73-2 6.66 6.66 0 0 0 1.94-4.76 6.48 6.48 0 0 0 -2-4.72 6.55 6.55 0 0 0 -4.82-1.99zm5.18 6.76a5.06 5.06 0 0 1 -1.52 3.68 4.84 4.84 0 0 1 -3.63 1.55 5.31 5.31 0 0 1 -5.23-5.22 5.07 5.07 0 0 1 1.55-3.69 5 5 0 0 1 3.67-1.58 4.86 4.86 0 0 1 3.67 1.56 5.09 5.09 0 0 1 1.49 3.7z"/><path d="m256.84014 176.53a4.76 4.76 0 0 0 2.18.51 4.5 4.5 0 0 0 3.16-1.22 4 4 0 0 0 1.32-3 3.61 3.61 0 0 0 -.68-2.14 5.54 5.54 0 0 0 -1.58-1.47c-.58-.36-1.16-.7-1.73-1a6.79 6.79 0 0 1 -1.38-1 1.3 1.3 0 0 1 -.49-1 1.06 1.06 0 0 1 .4-.84 1.51 1.51 0 0 1 1-.37 2.2 2.2 0 0 1 1.88 1.13l.69 1v-2.5l-.1-.1a3.09 3.09 0 0 0 -2.36-1.07 3.31 3.31 0 0 0 -2.23.75 2.47 2.47 0 0 0 -.9 1.91 2.87 2.87 0 0 0 .7 1.91 5.93 5.93 0 0 0 1.55 1.3l1.72 1a5.34 5.34 0 0 1 1.37 1.16 2.33 2.33 0 0 1 .52 1.56 2.2 2.2 0 0 1 -.83 1.65 3.2 3.2 0 0 1 -5.07-1.28l-.71-1.58v3 .18a3.51 3.51 0 0 0 1.57 1.51z"/><path d="m284.23014 176.12a6.65 6.65 0 0 0 1.79-1.48v2.1h1.61v-21h-1.61v10.18a6.19 6.19 0 0 0 -1.72-1.43 6.72 6.72 0 0 0 -3.41-.94 6.58 6.58 0 0 0 -4.82 2 6.72 6.72 0 0 0 0 9.53 6.62 6.62 0 0 0 4.82 2 6.73 6.73 0 0 0 3.34-.96zm-3.37-11.07a4.92 4.92 0 0 1 3.66 1.58 5 5 0 0 1 1.55 3.69 5.31 5.31 0 0 1 -5.22 5.22 4.88 4.88 0 0 1 -3.64-1.55 5.24 5.24 0 0 1 0-7.38 4.85 4.85 0 0 1 3.65-1.56z"/><path d="m298.91014 174.87a5.33 5.33 0 0 1 -2.71.69 4.91 4.91 0 0 1 -2.81-1.06l8.43-8.32-.24-.27a6.62 6.62 0 0 0 -5.06-2.34 6.77 6.77 0 0 0 -4.94 2 6.47 6.47 0 0 0 -2 4.71 6.6 6.6 0 0 0 2 4.76 6.47 6.47 0 0 0 4.73 2h.24a6.46 6.46 0 0 0 4.93-2.23l.09-.11v-2.75l-.68 1a6.05 6.05 0 0 1 -1.98 1.92zm-6.63-1.46a5.17 5.17 0 0 1 -1.08-3.22 5.31 5.31 0 0 1 5.09-5.11 5.25 5.25 0 0 1 3.26 1.11z"/><path d="m326.11014 163.55a5.17 5.17 0 0 0 -3 .85 4.18 4.18 0 0 0 -1.36 1.48 5 5 0 0 0 -1.29-1.46 4.26 4.26 0 0 0 -4.83-.23 5.6 5.6 0 0 0 -1.05.74v-1.09h-1.61v12.9h1.61v-8.47a3.09 3.09 0 0 1 1-2.25 3.12 3.12 0 0 1 2.28-1 2.94 2.94 0 0 1 2.21.95 3.15 3.15 0 0 1 .92 2.27v8.47h1.61v-8.47a3 3 0 0 1 1-2.24 3.19 3.19 0 0 1 2.31-1 3 3 0 0 1 2.2.93 3.16 3.16 0 0 1 .92 2.34v8.42h1.61v-8.42a4.61 4.61 0 0 0 -1.36-3.48 4.4 4.4 0 0 0 -3.17-1.24z"/><path d="m339.29014 177.07h.24a6.42 6.42 0 0 0 4.92-2.23l.1-.11v-2.75l-.69 1a5.93 5.93 0 0 1 -2 1.87 5.37 5.37 0 0 1 -2.72.69 4.88 4.88 0 0 1 -2.8-1.06l8.42-8.32-.24-.27a6.61 6.61 0 0 0 -5-2.34 6.77 6.77 0 0 0 -4.94 2 6.43 6.43 0 0 0 -2 4.71 6.63 6.63 0 0 0 2 4.76 6.49 6.49 0 0 0 4.71 2.05zm-4-3.66a5.08 5.08 0 0 1 -1.09-3.22 5.3 5.3 0 0 1 5.1-5.11 5.19 5.19 0 0 1 3.26 1.11z"/><path d="m359.32014 176.74v-21h-1.62v10.18a6.05 6.05 0 0 0 -1.72-1.43 6.7 6.7 0 0 0 -3.41-.94 6.75 6.75 0 1 0 0 13.49 6.77 6.77 0 0 0 3.35-.92 6.45 6.45 0 0 0 1.78-1.48v2.1zm-11.94-6.43a5.09 5.09 0 0 1 1.53-3.7 4.86 4.86 0 0 1 3.63-1.56 5 5 0 0 1 3.67 1.58 5.07 5.07 0 0 1 1.55 3.69 5.31 5.31 0 0 1 -5.23 5.22 4.84 4.84 0 0 1 -3.63-1.55 5.06 5.06 0 0 1 -1.52-3.68z"/><path d="m362.97014 161.65a1.11 1.11 0 1 0 0-2.21 1.11 1.11 0 1 0 0 2.21z"/><path d="m362.16013 163.87h1.61v12.87h-1.61z"/><path d="m377.82014 174.89.1-.1v-2.8l-.69 1a5.86 5.86 0 0 1 -2 1.88 5.19 5.19 0 0 1 -6.14-8.25 4.93 4.93 0 0 1 3.64-1.55 5 5 0 0 1 2.5.68 5.87 5.87 0 0 1 2 1.85l.69 1v-2.69l-.1-.11a6.58 6.58 0 0 0 -5-2.2 6.73 6.73 0 0 0 -4.91 2 6.42 6.42 0 0 0 -2 4.72 6.6 6.6 0 0 0 2 4.75 6.37 6.37 0 0 0 4.72 2h.24a6.43 6.43 0 0 0 4.95-2.18z"/><path d="m380.62014 161.65a1.11 1.11 0 1 0 -1.15-1.1 1 1 0 0 0 1.15 1.1z"/><path d="m379.82013 163.87h1.61v12.87h-1.61z"/><path d="m390.21014 163.55a5.28 5.28 0 0 0 -4.32 1.85v-1.56h-1.62v12.9h1.62v-7.45a4 4 0 0 1 1.3-3 4.19 4.19 0 0 1 3-1.27 3.83 3.83 0 0 1 2.9 1.26 4.17 4.17 0 0 1 1.21 3v7.45h1.61v-7.45a5.58 5.58 0 0 0 -1.65-4.06 5.47 5.47 0 0 0 -4.05-1.67z"/><path d="m404.54014 177.04a6.77 6.77 0 0 0 3.44-.94 6.36 6.36 0 0 0 1.7-1.47v2.11h1.61v-12.9h-1.61v2.06a5.71 5.71 0 0 0 -1.64-1.38 6.83 6.83 0 0 0 -3.5-1 6.6 6.6 0 0 0 -4.8 2 6.68 6.68 0 0 0 0 9.53 6.64 6.64 0 0 0 4.8 1.99zm3.68-3.05a4.88 4.88 0 0 1 -3.64 1.55 5.31 5.31 0 0 1 -5.22-5.22 5 5 0 0 1 1.55-3.69 4.92 4.92 0 0 1 3.66-1.58 4.85 4.85 0 0 1 3.63 1.56 5.24 5.24 0 0 1 0 7.38z"/><path d="m429.36014 177.07a6.89 6.89 0 0 0 3.42-.94 6.5 6.5 0 0 0 1.74-1.44v.55a5.86 5.86 0 0 1 -1.41 4.17 4.72 4.72 0 0 1 -3.62 1.48 5.75 5.75 0 0 1 -2.88-.81 5.29 5.29 0 0 1 -2-2l-.71-1.31v2.85l.07.1a6.28 6.28 0 0 0 2.41 1.95 7.28 7.28 0 0 0 3.16.74 6.37 6.37 0 0 0 4.81-1.93 7.25 7.25 0 0 0 1.83-5.19v-11.4h-1.61v2.1a6.11 6.11 0 0 0 -1.7-1.44 6.9 6.9 0 0 0 -3.46-.93 6.58 6.58 0 0 0 -4.8 2 6.66 6.66 0 0 0 0 9.52 6.58 6.58 0 0 0 4.75 1.93zm-5.19-6.75a5.29 5.29 0 0 1 5.23-5.24 4.84 4.84 0 0 1 3.63 1.55 5.26 5.26 0 0 1 0 7.38 4.81 4.81 0 0 1 -3.63 1.55 5.29 5.29 0 0 1 -5.23-5.24z"/><path d="m450.11014 165.91a6.61 6.61 0 0 0 -5.05-2.34 6.77 6.77 0 0 0 -4.94 2 6.43 6.43 0 0 0 -2 4.71 6.63 6.63 0 0 0 2 4.76 6.49 6.49 0 0 0 4.74 2h.25a6.42 6.42 0 0 0 4.92-2.23l.1-.11v-2.75l-.69 1a5.93 5.93 0 0 1 -2 1.87 5.37 5.37 0 0 1 -2.72.69 4.88 4.88 0 0 1 -2.8-1.06l8.42-8.32zm-9.29 7.5a5.08 5.08 0 0 1 -1.09-3.22 5.3 5.3 0 0 1 5.1-5.11 5.19 5.19 0 0 1 3.26 1.11z"/><path d="m454.55014 164.19a4.65 4.65 0 0 0 -1 .72v-1.07h-1.61v12.9h1.61v-8.47a3.06 3.06 0 0 1 1-2.25 3.11 3.11 0 0 1 2.26-1 3.29 3.29 0 0 1 2.36 1.08l.64.64v-2.17l-.15-.11a4.62 4.62 0 0 0 -5.11-.27z"/><path d="m472.64014 165.9a5.71 5.71 0 0 0 -1.64-1.38 6.79 6.79 0 0 0 -3.49-1 6.57 6.57 0 0 0 -4.8 2 6.68 6.68 0 0 0 0 9.53 6.61 6.61 0 0 0 4.8 2 6.73 6.73 0 0 0 3.43-.94 6.21 6.21 0 0 0 1.7-1.47v2.11h1.61v-12.9h-1.61zm-1.46 8.09a4.84 4.84 0 0 1 -3.63 1.55 5.31 5.31 0 0 1 -5.23-5.22 5.07 5.07 0 0 1 1.55-3.69 4.94 4.94 0 0 1 3.66-1.58 4.88 4.88 0 0 1 3.64 1.56 5.12 5.12 0 0 1 1.52 3.7 5.05 5.05 0 0 1 -1.51 3.68z"/><path d="m481.74014 175.48a3.33 3.33 0 0 1 -3.38-3.43v-16.31h-1.62v16.31a4.71 4.71 0 0 0 1.47 3.55 5 5 0 0 0 3.53 1.39h.37v-1.51z"/><path d="m61.74014 191.91a6.62 6.62 0 0 0 -5.06-2.34 6.76 6.76 0 0 0 -4.93 2 6.43 6.43 0 0 0 -2 4.71 6.63 6.63 0 0 0 2 4.76 6.49 6.49 0 0 0 4.74 2h.24a6.44 6.44 0 0 0 4.92-2.23l.1-.11v-2.75l-.69 1a5.93 5.93 0 0 1 -2 1.87 5.37 5.37 0 0 1 -2.72.69 4.86 4.86 0 0 1 -2.8-1.06l8.42-8.32zm-9.29 7.5a5.08 5.08 0 0 1 -1.09-3.22 5.3 5.3 0 0 1 5.1-5.11 5.27 5.27 0 0 1 3.26 1.11z"/><path d="m74.72014 189.87a3.28 3.28 0 0 1 1-2.46 3.23 3.23 0 0 1 2.39-1h.38v-1.51h-.38a5 5 0 0 0 -3.52 1.39 4.7 4.7 0 0 0 -1.47 3.55v12.87h1.62v-4.64h3.78v-1.51h-3.78z"/><path d="m91.17014 191.9a5.71 5.71 0 0 0 -1.64-1.38 6.83 6.83 0 0 0 -3.5-1 6.75 6.75 0 1 0 0 13.49 6.71 6.71 0 0 0 3.43-.94 6.4 6.4 0 0 0 1.71-1.47v2.11h1.61v-12.9h-1.61zm-1.46 8.09a4.88 4.88 0 0 1 -3.64 1.55 5.31 5.31 0 0 1 -5.22-5.22 5 5 0 0 1 1.55-3.69 4.92 4.92 0 0 1 3.66-1.58 4.85 4.85 0 0 1 3.63 1.56 5.24 5.24 0 0 1 0 7.38z"/><path d="m108.42014 189.55a5.2 5.2 0 0 0 -3 .85 4.18 4.18 0 0 0 -1.36 1.48 5 5 0 0 0 -1.29-1.46 4.26 4.26 0 0 0 -4.83-.23 5.6 5.6 0 0 0 -1.05.74v-1.09h-1.61v12.9h1.61v-8.47a3.09 3.09 0 0 1 1-2.25 3.12 3.12 0 0 1 2.28-1 2.94 2.94 0 0 1 2.21.95 3.15 3.15 0 0 1 .92 2.27v8.47h1.62v-8.47a3 3 0 0 1 1-2.24 3.2 3.2 0 0 1 2.31-1 3 3 0 0 1 2.2.93 3.16 3.16 0 0 1 .92 2.34v8.42h1.61v-8.42a4.61 4.61 0 0 0 -1.36-3.48 4.39 4.39 0 0 0 -3.18-1.24z"/><path d="m115.76014 189.87h1.61v12.87h-1.61z"/><path d="m116.57014 185.41a1.11 1.11 0 1 0 1.16 1.11 1 1 0 0 0 -1.16-1.11z"/><path d="m122.81014 200.51a3.28 3.28 0 0 1 -1-2.46v-16.31h-1.61v16.31a4.7 4.7 0 0 0 1.46 3.55 5 5 0 0 0 3.53 1.39h.37v-1.51h-.37a3.29 3.29 0 0 1 -2.38-.97z"/><path d="m128.11014 185.41a1.11 1.11 0 1 0 0 2.21 1.11 1.11 0 1 0 0-2.21z"/><path d="m127.35014 189.87h1.61v12.87h-1.61z"/><path d="m143.11014 191.9a5.71 5.71 0 0 0 -1.64-1.38 6.82 6.82 0 0 0 -3.49-1 6.57 6.57 0 0 0 -4.8 2 6.65 6.65 0 0 0 0 9.53 6.61 6.61 0 0 0 4.8 2 6.76 6.76 0 0 0 3.43-.94 6.21 6.21 0 0 0 1.7-1.47v2.11h1.61v-12.9h-1.61zm-1.46 8.09a4.87 4.87 0 0 1 -3.63 1.55 5.31 5.31 0 0 1 -5.23-5.22 5.07 5.07 0 0 1 1.55-3.69 4.94 4.94 0 0 1 3.66-1.58 4.88 4.88 0 0 1 3.64 1.56 5.12 5.12 0 0 1 1.52 3.7 5.05 5.05 0 0 1 -1.56 3.68z"/><path d="m149.73014 190.19a4.65 4.65 0 0 0 -.95.72v-1.07h-1.62v12.9h1.62v-8.47a3.06 3.06 0 0 1 1-2.25 3.11 3.11 0 0 1 2.26-1 3.25 3.25 0 0 1 2.35 1.08l.64.64v-2.17l-.15-.11a4.6 4.6 0 0 0 -5.15-.27z"/><path d="m177.27014 191.92a6.19 6.19 0 0 0 -1.72-1.43 6.76 6.76 0 0 0 -3.42-.94 6.75 6.75 0 1 0 0 13.49 6.77 6.77 0 0 0 3.35-.92 6.65 6.65 0 0 0 1.79-1.48v2.1h1.61v-21h-1.61zm-10.32 4.39a5.12 5.12 0 0 1 1.52-3.7 4.88 4.88 0 0 1 3.64-1.56 4.94 4.94 0 0 1 3.66 1.58 5.07 5.07 0 0 1 1.55 3.69 5.31 5.31 0 0 1 -5.23 5.22 4.87 4.87 0 0 1 -3.63-1.55 5.05 5.05 0 0 1 -1.51-3.68z"/><path d="m192.82014 191.91a6.61 6.61 0 0 0 -5-2.34 6.77 6.77 0 0 0 -4.94 2 6.43 6.43 0 0 0 -2 4.71 6.63 6.63 0 0 0 2 4.76 6.49 6.49 0 0 0 4.74 2h.24a6.42 6.42 0 0 0 4.92-2.23l.1-.11v-2.75l-.69 1a5.93 5.93 0 0 1 -2 1.87 5.37 5.37 0 0 1 -2.72.69 4.88 4.88 0 0 1 -2.8-1.06l8.42-8.32zm-9.29 7.5a5.08 5.08 0 0 1 -1.09-3.22 5.32 5.32 0 0 1 5.1-5.11 5.25 5.25 0 0 1 3.26 1.11z"/><path d="m206.78014 200.51a3.28 3.28 0 0 1 -1-2.46v-16.31h-1.61v16.31a4.7 4.7 0 0 0 1.46 3.55 5 5 0 0 0 3.53 1.39h.37v-1.51h-.37a3.27 3.27 0 0 1 -2.38-.97z"/><path d="m212.11014 185.41a1.11 1.11 0 1 0 0 2.21 1.11 1.11 0 1 0 0-2.21z"/><path d="m211.31013 189.87h1.61v12.87h-1.61z"/><path d="m220.99014 195.22c-.59-.36-1.16-.7-1.74-1a7.08 7.08 0 0 1 -1.38-1 1.3 1.3 0 0 1 -.49-1 1.07 1.07 0 0 1 .41-.84 1.48 1.48 0 0 1 1-.37 2.18 2.18 0 0 1 1.87 1.13l.69 1v-2.5l-.1-.1a3.07 3.07 0 0 0 -2.35-1.07 3.31 3.31 0 0 0 -2.23.75 2.44 2.44 0 0 0 -.9 1.91 2.86 2.86 0 0 0 .69 1.91 6 6 0 0 0 1.56 1.3l1.71 1a5.39 5.39 0 0 1 1.38 1.16 2.33 2.33 0 0 1 .52 1.56 2.21 2.21 0 0 1 -.84 1.65 3.19 3.19 0 0 1 -5.06-1.28l-.72-1.59v3l.05.18a3.48 3.48 0 0 0 1.52 1.41 4.79 4.79 0 0 0 2.18.51 4.49 4.49 0 0 0 3.16-1.22 3.94 3.94 0 0 0 1.32-3 3.61 3.61 0 0 0 -.68-2.14 5.63 5.63 0 0 0 -1.57-1.36z"/><path d="m231.80014 189.55a6.75 6.75 0 0 0 -3.41.94 6.19 6.19 0 0 0 -1.72 1.43v-10.18h-1.56v21h1.61v-2.1a6.65 6.65 0 0 0 1.79 1.48 6.73 6.73 0 0 0 3.34.92 6.62 6.62 0 0 0 4.82-2 6.75 6.75 0 0 0 -4.82-11.51zm-3.63 3.08a4.92 4.92 0 0 1 3.66-1.58 4.85 4.85 0 0 1 3.63 1.56 5.24 5.24 0 0 1 0 7.38 4.88 4.88 0 0 1 -3.64 1.55 5.29 5.29 0 0 1 -5.22-5.22 5 5 0 0 1 1.57-3.69z"/><path d="m246.56014 189.55a6.61 6.61 0 0 0 -4.82 2 6.47 6.47 0 0 0 -2 4.71 6.72 6.72 0 0 0 2 4.76 6.39 6.39 0 0 0 4.73 2h.24a6.31 6.31 0 0 0 4.72-2 6.67 6.67 0 0 0 1.95-4.76 6.48 6.48 0 0 0 -2-4.72 6.55 6.55 0 0 0 -4.82-1.99zm5.17 6.76a5.05 5.05 0 0 1 -1.51 3.68 4.87 4.87 0 0 1 -3.63 1.55 5.31 5.31 0 0 1 -5.23-5.22 5.07 5.07 0 0 1 1.55-3.69 4.94 4.94 0 0 1 3.66-1.58 4.85 4.85 0 0 1 3.63 1.56 5.09 5.09 0 0 1 1.53 3.7z"/><path d="m266.42014 191.9a5.71 5.71 0 0 0 -1.64-1.38 6.82 6.82 0 0 0 -3.49-1 6.57 6.57 0 0 0 -4.8 2 6.65 6.65 0 0 0 0 9.53 6.61 6.61 0 0 0 4.8 2 6.76 6.76 0 0 0 3.43-.94 6.21 6.21 0 0 0 1.7-1.47v2.11h1.61v-12.9h-1.61zm-1.46 8.09a4.86 4.86 0 0 1 -3.63 1.55 5.31 5.31 0 0 1 -5.23-5.22 5.07 5.07 0 0 1 1.55-3.69 4.94 4.94 0 0 1 3.66-1.58 4.88 4.88 0 0 1 3.64 1.56 5.12 5.12 0 0 1 1.52 3.7 5.05 5.05 0 0 1 -1.51 3.68z"/><path d="m291.43014 191.91a6.63 6.63 0 0 0 -5.06-2.34 6.77 6.77 0 0 0 -4.94 2 6.47 6.47 0 0 0 -2 4.71 6.63 6.63 0 0 0 2 4.76 6.49 6.49 0 0 0 4.74 2h.24a6.42 6.42 0 0 0 4.92-2.23l.1-.11v-2.75l-.68 1a6.05 6.05 0 0 1 -2 1.87 5.34 5.34 0 0 1 -2.72.69 4.91 4.91 0 0 1 -2.8-1.06l8.43-8.32zm-9.32 7.5a5.17 5.17 0 0 1 -1.08-3.22 5.31 5.31 0 0 1 5.09-5.11 5.25 5.25 0 0 1 3.26 1.11z"/><path d="m314.77016 189.83998h-1.61005l-4.86999 10.18002-4.88996-10.18002h-1.78003l6.59003 13.75z"/><path d="m327.36014 191.9a5.71 5.71 0 0 0 -1.64-1.38 6.83 6.83 0 0 0 -3.5-1 6.6 6.6 0 0 0 -4.8 2 6.68 6.68 0 0 0 0 9.53 6.62 6.62 0 0 0 4.8 2 6.71 6.71 0 0 0 3.43-.94 6.4 6.4 0 0 0 1.71-1.47v2.11h1.61v-12.9h-1.61zm-1.46 8.09a4.88 4.88 0 0 1 -3.64 1.55 5.31 5.31 0 0 1 -5.22-5.22 5 5 0 0 1 1.55-3.69 4.92 4.92 0 0 1 3.66-1.58 4.85 4.85 0 0 1 3.63 1.56 5.24 5.24 0 0 1 0 7.38z"/><path d="m334.11014 200.51a3.29 3.29 0 0 1 -1-2.46v-16.31h-1.61v16.31a4.68 4.68 0 0 0 1.47 3.55 5 5 0 0 0 3.52 1.39h.38v-1.51h-.38a3.25 3.25 0 0 1 -2.38-.97z"/><path d="m348.61014 191.91a6.62 6.62 0 0 0 -5.06-2.34 6.74 6.74 0 0 0 -4.93 2 6.43 6.43 0 0 0 -2 4.71 6.59 6.59 0 0 0 2 4.76 6.47 6.47 0 0 0 4.73 2h.25a6.44 6.44 0 0 0 4.92-2.23l.1-.11v-2.75l-.69 1a6 6 0 0 1 -2 1.87 5.3 5.3 0 0 1 -2.71.69 4.91 4.91 0 0 1 -2.81-1.06l8.43-8.32zm-9.3 7.5a5.13 5.13 0 0 1 -1.08-3.22 5.31 5.31 0 0 1 5.09-5.11 5.15 5.15 0 0 1 3.26 1.11z"/><path d="m371.23014 191.92a6.19 6.19 0 0 0 -1.72-1.43 6.72 6.72 0 0 0 -3.41-.94 6.75 6.75 0 1 0 0 13.49 6.73 6.73 0 0 0 3.34-.92 6.65 6.65 0 0 0 1.79-1.48v2.1h1.62v-21h-1.62zm-10.32 4.39a5.09 5.09 0 0 1 1.53-3.7 4.85 4.85 0 0 1 3.63-1.56 4.92 4.92 0 0 1 3.66 1.58 5 5 0 0 1 1.55 3.69 5.31 5.31 0 0 1 -5.22 5.22 4.88 4.88 0 0 1 -3.64-1.55 5.09 5.09 0 0 1 -1.51-3.68z"/><path d="m381.47014 189.55a6.61 6.61 0 0 0 -4.81 2 6.43 6.43 0 0 0 -2 4.71 6.67 6.67 0 0 0 2 4.76 6.38 6.38 0 0 0 4.72 2h.25a6.31 6.31 0 0 0 4.72-2 6.69 6.69 0 0 0 1.94-4.76 6.76 6.76 0 0 0 -6.79-6.7zm5.18 6.76a5.06 5.06 0 0 1 -1.52 3.68 4.84 4.84 0 0 1 -3.63 1.55 5.31 5.31 0 0 1 -5.23-5.22 5 5 0 0 1 1.56-3.69 4.92 4.92 0 0 1 3.66-1.58 4.85 4.85 0 0 1 3.62 1.56 5.09 5.09 0 0 1 1.54 3.7z"/><path d="m401.85014 200.41a3.28 3.28 0 0 1 -1-2.46v-6.54h3.73v-1.51h-3.73v-4.91h-1.61v13a4.7 4.7 0 0 0 1.46 3.55 5 5 0 0 0 3.53 1.39h.37v-1.52h-.37a3.29 3.29 0 0 1 -2.38-1z"/><path d="m417.40014 200.84.1-.11v-2.75l-.68 1a6.05 6.05 0 0 1 -2 1.87 5.33 5.33 0 0 1 -2.71.69 4.91 4.91 0 0 1 -2.81-1.06l8.43-8.32-.24-.27a6.62 6.62 0 0 0 -5.06-2.34 6.77 6.77 0 0 0 -4.94 2 6.47 6.47 0 0 0 -2 4.71 6.6 6.6 0 0 0 2 4.76 6.47 6.47 0 0 0 4.73 2h.24a6.42 6.42 0 0 0 4.94-2.18zm-9.21-1.43a5.07 5.07 0 0 1 -1.08-3.22 5.31 5.31 0 0 1 5.09-5.11 5.15 5.15 0 0 1 3.26 1.11z"/><path d="m420.40014 185.41a1.11 1.11 0 1 0 0 2.21 1.11 1.11 0 1 0 0-2.21z"/><path d="m419.56014 203.15a3.26 3.26 0 0 1 -1 2.46 3.31 3.31 0 0 1 -2.44 1h-.38v1.51h.37a5 5 0 0 0 3.56-1.38 4.69 4.69 0 0 0 1.49-3.56v-13.34h-1.62z"/><path d="m430.18014 189.55a6.61 6.61 0 0 0 -4.81 2 6.43 6.43 0 0 0 -2 4.71 6.67 6.67 0 0 0 2 4.76 6.38 6.38 0 0 0 4.72 2h.24a6.32 6.32 0 0 0 4.73-2 6.69 6.69 0 0 0 1.94-4.76 6.48 6.48 0 0 0 -2-4.72 6.55 6.55 0 0 0 -4.82-1.99zm5.18 6.76a5.06 5.06 0 0 1 -1.52 3.68 4.84 4.84 0 0 1 -3.63 1.55 5.31 5.31 0 0 1 -5.23-5.22 5 5 0 0 1 1.56-3.69 4.92 4.92 0 0 1 3.66-1.58 4.86 4.86 0 0 1 3.63 1.56 5.09 5.09 0 0 1 1.53 3.7z"/></g><path d="m76.37014 109.88c-.62.75-1.28 1.49-2 2.21a27.78 27.78 0 0 1 -20.79 8.88 28.69 28.69 0 0 1 -21.16-9c-6-6-8.95-12.91-8.95-21.06s2.94-15.14 9-21.3 12.89-9.09 21-9.09 14.91 2.94 20.8 9a29.3 29.3 0 0 1 8.84 21.34 30.27 30.27 0 0 1 -1.45 9.49h21.12l3.44-14.9v-45.56h-23.46v6.79c-.69-.44-1.4-.88-2.13-1.3a53.81 53.81 0 0 0 -27.33-7.55 51.7 51.7 0 0 0 -37.61 15.58 52.36 52.36 0 0 0 0 74.75 51.68 51.68 0 0 0 37.61 15.56 52.37 52.37 0 0 0 26.91-7.39c.87-.52 1.72-1 2.55-1.6v6.93h23.48v-31.79h-29.87z" fill="#f37436"/><ellipse cx="122.89014" cy="13.8" fill="#f37436" rx="14.17" ry="13.8"/><path d="m137.05013 87.589981.01004.050049v-47.750031h-.01004z" fill="#f37436"/><path d="m137.11014 109.83v31.82z" fill="#f37436"/><path d="m234.36014 37.83c-9.37 0-17.55 2.34-24.31 7a38.41 38.41 0 0 0 -6 5.06 40.63 40.63 0 0 0 -5.24-4.71 33.61 33.61 0 0 0 -20.53-7.3 39.56 39.56 0 0 0 -17.75 4.25v-2.19h-23.27l24.36 31.16a17.09 17.09 0 0 1 3.84-5.56 15.35 15.35 0 0 1 11.42-4.93 14.32 14.32 0 0 1 10.92 4.71 15.65 15.65 0 0 1 4.67 11.45v64.92-31.17l23.46 30v-63.8c0-4.23 1.62-7.77 5.1-11.12s7.29-5 11.72-5a14.52 14.52 0 0 1 10.91 4.61c3.13 3.18 4.59 7 4.59 11.93v64.54h23.48v-64.58c0-11.8-3.81-21.42-11.32-28.6a36.66 36.66 0 0 0 -26.05-10.67z" fill="#f37436"/><path d="m331.67012 133.41002h-30.82001v-95.770021h-8.38v103.620031h39.20001z" fill="#298a91"/><path d="m417.49013 37.639999h-8.54999l-42.03003 86.429991-42.28-86.429991h-9.04996l50.94996 104.780031z" fill="#298a91"/><path d="m447.1501 45.5v95.76003h8.38001v-95.76003h22.72003v-7.860001h-54.08002v7.860001z" fill="#298a91"/><path d="m160.53014 100.35v-23.63a14.56 14.56 0 0 1 1.09-5.66 14.58 14.58 0 0 0 -1.09 5.67z" fill="#6d6d6d" opacity=".29"/><path d="m160.53014 109.88h.01v31.76h-.01z" fill="#6d6d6d" opacity=".29"/><path d="m137.11014 39.89v47.74l3.74 12.72h19.73v-23.63a14.58 14.58 0 0 1 1.09-5.67l-24.36-31.16z" fill="#f37436"/><path d="m137.54014 109.87a4.43 4.43 0 0 1 -.48 0v31.81h23.47v-31.8z" fill="#f37436"/><path d="m215.95015 140.53001v1.11002h.01001v-1.09z" fill="#6d6d6d" opacity=".29"/><path d="m215.95015 140.53001-23.45999-30.01001v31.12003h23.45999z" fill="#f37436"/><path d="m137.11014 39.89v47.74l3.74 12.72h19.73v-23.63a14.58 14.58 0 0 1 1.09-5.67l-24.36-31.16z" fill="#6d6d6d" opacity=".29"/><path d="m137.54014 109.87a4.43 4.43 0 0 1 -.48 0v31.81h23.47v-31.8z" fill="#6d6d6d" opacity=".29"/><path d="m215.95015 140.53001-23.45999-30.01001v31.12003h23.45999z" fill="#6d6d6d" opacity=".29"/><polygon fill="none"/><path d="m122.87014 128.89c0 .09-.33 0-.33.1" fill="#fff"/><path d="m122.47014 128.98h-.16l-.15-.05h-.05a.12.12 0 0 1 -.1 0" fill="#fff"/><path d="m112.91014 70.089996.05-.099998" fill="#fff"/><path d="m166.20014 103.35h-27.64l-1.5-5.08v-.05l-2.94-10a1.66 1.66 0 0 0 -.79-1 .93.93 0 0 0 -.8 0 1.42 1.42 0 0 0 -.75.77 2 2 0 0 0 -.17.42l-8.76 32.34-7.57-50.13-.05-.18-.18-.41-.09-.13-.08-.11-.11-.11-.08-.07-.09-.07-.1-.06h-.11l-.17-.06h-.21-.27-.11-.1l-.1.06-.08.06-.1.09a3.07 3.07 0 0 0 -.28.35l-.05.1-.07.15-.11.37-6.49 28.21-1.05 4.53h-47.4a1.18 1.18 0 0 0 -.86.43 2.06 2.06 0 0 0 -.46 1.33c0 1 .6 1.76 1.32 1.76h20.77 27.67.14l.43-.21.09-.07.21-.24a1.75 1.75 0 0 0 .17-.28l.07-.16.05-.14v-.11l6.32-27.42s4 34.49 7.48 49.45c.21 1.05.71 1.79 1.29 1.79s.9-.67 1.37-2.23l9-33.41 3.52 11.94a1.25 1.25 0 0 0 .09.25 2 2 0 0 0 .28.44l.16.15h.06l.08.06.18.08h.14.18 28.55c.72 0 1.32-.81 1.32-1.77s-.5-1.63-1.22-1.63z" fill="#666"/></g><path d="m224.09603 120.87657h-222.3211056" fill="none" stroke="#666" stroke-linecap="round" stroke-linejoin="round" stroke-width="3.5"/><path d="m84.337214 232.82823 68.047676-232.594061h62.57974l-68.02659 232.521941z" fill="#f37436"/><path d="m9.8685844 232.59406 68.0476896-232.59406h62.579726l-68.026576 232.52194z" fill="#298a91"/></svg>