<svg height="255.42999" viewBox="0 0 271.79095 255.42998" width="271.79095" xmlns="http://www.w3.org/2000/svg"><g transform="translate(-285.06905 -169.92)"><g fill="#f37436"><path d="m361.44 279.79c-.62.76-1.28 1.49-2 2.22a27.81 27.81 0 0 1 -20.8 8.87 28.68 28.68 0 0 1 -21.16-8.95c-6-6-8.95-12.92-8.95-21.06s2.94-15.14 9-21.3 12.9-9.09 21-9.09a27.82 27.82 0 0 1 20.8 9 29.31 29.31 0 0 1 8.85 21.32 30.29 30.29 0 0 1 -1.46 9.5h21.13l3.43-14.9v-45.59h-23.45v6.79c-.69-.45-1.4-.88-2.13-1.3a53.8 53.8 0 0 0 -27.32-7.55 51.7 51.7 0 0 0 -37.62 15.55 52.37 52.37 0 0 0 0 74.76 51.68 51.68 0 0 0 37.62 15.55 52.26 52.26 0 0 0 26.9-7.39c.87-.51 1.72-1 2.55-1.6v6.93h23.48v-31.76z"/><ellipse cx="407.95999" cy="183.72" rx="14.17" ry="13.8"/><path d="m422.12 257.51.01.04v-47.74h-.01z"/><path d="m422.14 279.74v31.81z"/><path d="m519.43 207.75c-9.37 0-17.55 2.34-24.31 6.95a38.41 38.41 0 0 0 -6 5.06 40.7 40.7 0 0 0 -5.24-4.72 33.6 33.6 0 0 0 -20.53-7.29 39.59 39.59 0 0 0 -17.75 4.25v-2.19h-23.27l24.36 31.19a17.09 17.09 0 0 1 3.84-5.56 15.31 15.31 0 0 1 11.47-4.96 14.32 14.32 0 0 1 10.92 4.71 15.66 15.66 0 0 1 4.68 11.45v64.91-31.11l23.46 30v-63.8c0-4.24 1.62-7.77 5.1-11.12s7.29-5 11.72-5a14.49 14.49 0 0 1 10.91 4.6c3.13 3.18 4.59 7 4.59 11.93v64.54h23.48v-64.59c0-11.79-3.81-21.41-11.31-28.6a36.73 36.73 0 0 0 -26.12-10.65z"/></g><g fill="#298a91"><path d="m368.16 424.17h39.8v-7.97h-31.29v-97.25h-8.51z"/><path d="m391.63 318.95 51.74 106.4 51.75-106.4h-8.68l-42.68 87.76-42.94-87.76z"/><path d="m525.24 326.92v97.25h8.51v-97.25h23.07v-7.97h-54.91v7.97z"/></g><path d="m445.6 270.27v-23.63a14.53 14.53 0 0 1 1.1-5.64 14.58 14.58 0 0 0 -1.09 5.67z" fill="#6d6d6d" opacity=".29"/><path d="m445.60001 279.79001h.01v31.76h-.01z" fill="#6d6d6d" opacity=".29"/><path d="m422.14 209.81v47.74l3.74 12.72h19.72v-23.63a14.58 14.58 0 0 1 1.09-5.67l-24.36-31.16z" fill="#f37436"/><path d="m422.61 279.79a2.69 2.69 0 0 1 -.47-.05v31.81h23.46v-31.76z" fill="#f37436"/><path d="m501.02 310.45v1.1h.02v-1.09z" fill="#6d6d6d" opacity=".29"/><path d="m501.02 310.45-23.46-30.01v31.11h23.46z" fill="#f37436"/><g fill="#6d6d6d"><path d="m422.14 209.81v47.74l3.74 12.72h19.72v-23.63a14.58 14.58 0 0 1 1.09-5.67l-24.36-31.16z" opacity=".29"/><path d="m422.61 279.79a2.69 2.69 0 0 1 -.47-.05v31.81h23.46v-31.76z" opacity=".29"/><path d="m501.02 310.45-23.46-30.01v31.11h23.46z" opacity=".29"/></g><polygon fill="none"/><path d="m408 298.81c0 .09-.34 0-.34.1" fill="#fff"/><path d="m407.54 298.9h-.15-.16a.13.13 0 0 1 -.11 0" fill="#fff"/><path d="m397.98001 240 .04999-.09" fill="#fff"/><path d="m451.27 273.27h-27.64l-1.49-5.09-2.94-10a1.6 1.6 0 0 0 -.79-1 .93.93 0 0 0 -.8 0 1.43 1.43 0 0 0 -.75.76 2.64 2.64 0 0 0 -.17.42l-8.76 32.35-7.57-50.14v-.17l-.18-.41-.09-.13-.08-.11-.1-.11-.09-.07-.09-.07-.1-.06-.11-.06h-.17-.21-.27-.11-.1l-.1.06-.08.06a.65.65 0 0 0 -.1.09 3.07 3.07 0 0 0 -.28.35v.09l-.07.15-.11.38-6.49 28.2-1.05 4.54h-47.51a1.18 1.18 0 0 0 -.86.44 2.05 2.05 0 0 0 -.46 1.32c0 1 .6 1.77 1.32 1.77h20.77 27.81l.43-.21.09-.07.21-.24a1.46 1.46 0 0 0 .17-.29l.07-.15.05-.15v-.1l6.32-27.43s4 34.5 7.48 49.46c.21 1.05.71 1.79 1.3 1.79s.89-.67 1.36-2.24l9.05-33.4 3.51 11.94a2.34 2.34 0 0 0 .09.24 2.42 2.42 0 0 0 .12.23l.16.21a.69.69 0 0 0 .16.15h.06l.08.05.17.09h.14.17 28.55c.72 0 1.32-.8 1.32-1.76s-.51-1.68-1.24-1.68z" fill="#666"/></g></svg>